<svg width="40" height="34" viewBox="0 0 40 34" fill="none" xmlns="http://www.w3.org/2000/svg">
<path d="M3.68164 8.60268C3.68164 7.68601 4.42536 6.94434 5.34084 6.94434H18.6978C19.1378 6.94434 19.5599 7.11905 19.871 7.43005C20.1822 7.74105 20.357 8.16286 20.357 8.60268C20.357 9.0425 20.1822 9.4643 19.871 9.7753C19.5599 10.0863 19.1378 10.261 18.6978 10.261H5.34084C4.90079 10.261 4.47877 10.0863 4.16761 9.7753C3.85645 9.4643 3.68164 9.0425 3.68164 8.60268Z" fill="#F7F7F7"/>
<path d="M3.68164 18.6109C3.68164 17.6942 4.42536 16.9525 5.34084 16.9525H35.3731C35.8132 16.9525 36.2352 17.1272 36.5464 17.4382C36.8575 17.7492 37.0323 18.171 37.0323 18.6109C37.0323 19.0507 36.8575 19.4725 36.5464 19.7835C36.2352 20.0945 35.8132 20.2692 35.3731 20.2692H5.34084C4.90079 20.2692 4.47877 20.0945 4.16761 19.7835C3.85645 19.4725 3.68164 19.0507 3.68164 18.6109Z" fill="#F7F7F7"/>
<path d="M5.34084 26.9608C4.90079 26.9608 4.47877 27.1355 4.16761 27.4465C3.85645 27.7575 3.68164 28.1793 3.68164 28.6191C3.68164 29.0589 3.85645 29.4807 4.16761 29.7917C4.47877 30.1027 4.90079 30.2774 5.34084 30.2774H25.3679C25.808 30.2774 26.23 30.1027 26.5412 29.7917C26.8523 29.4807 27.0271 29.0589 27.0271 28.6191C27.0271 28.1793 26.8523 27.7575 26.5412 27.4465C26.23 27.1355 25.808 26.9608 25.3679 26.9608H5.34084Z" fill="#F7F7F7"/>
</svg>
